<svg width="23" height="20" viewBox="0 0 23 20" fill="none" xmlns="http://www.w3.org/2000/svg">
<path d="M13.3685 3.35969C13.9878 3.55066 14.5355 3.97525 14.8613 4.58761C15.3607 5.5262 15.1984 6.64524 14.5456 7.41177L16.5838 10.7628C17.3224 10.5571 18.1055 10.712 18.718 11.1436L20.3759 9.75886L21.2482 10.8048L19.5746 12.2057C20.0798 13.394 19.6108 14.8069 18.4512 15.4238C17.2264 16.0755 15.6871 15.6014 15.0355 14.3767C14.5191 13.4062 14.7152 12.2464 15.4247 11.4795L13.411 8.16871C12.8223 8.35924 12.1999 8.31598 11.6498 8.08447L8.55375 11.8206C8.61203 11.9038 8.67444 11.9824 8.72328 12.0741C9.37487 13.2988 8.90353 14.8431 7.67876 15.4947C6.454 16.1464 4.9147 15.6722 4.26305 14.4475C3.89557 13.7569 3.89542 12.9712 4.17537 12.2966L2.03717 10.5057L2.91129 9.46513L5.01753 11.2274C5.11067 11.1599 5.2013 11.0889 5.3057 11.0333C6.00958 10.6588 6.81386 10.6642 7.49809 10.9603L10.584 7.23513C10.5203 7.14614 10.4537 7.06037 10.401 6.96116C9.74943 5.73644 10.2208 4.19218 11.4456 3.54053C12.0579 3.21467 12.749 3.16957 13.3685 3.35969Z" fill="#00D7D7"/>
</svg>
